<svg width="101" height="100" fill="none" xmlns="http://www.w3.org/2000/svg">
  <path d="M65.998 23.553v27.47a1.821 1.821 0 0 0 1.598 1.83 1.759 1.759 0 0 0 1.792-1.047c.099-.225.15-.469.152-.715V23.349l-3.542.204zM31.308 23.553v27.47a1.821 1.821 0 0 0 1.598 1.83 1.758 1.758 0 0 0 1.792-1.047c.099-.225.15-.469.151-.715V23.349l-3.541.204z" fill="#1976D2"/>
  <path d="M81.53 51.567a2.632 2.632 0 0 0-2.213-2.583l-2.057-.338-3.542-.581-4.178-.685-3.542-.584-24.426-4.01a2.667 2.667 0 0 0-1.087.048l-5.635 1.46-2.276.588-.928.24h-.003l-.003.003-.332.086-3.357.867-1.061.274-.326.082-3.213.83-6.156 1.595c-.412.106-.79.311-1.105.596v.007a2.607 2.607 0 0 0-.87 1.95V82.35a2.656 2.656 0 0 0 2.09 2.577l34.967 7.44 3.478.74c.147.032.297.05.447.052a.578.578 0 0 0 .104.006c.117 0 .234-.009.35-.024l.003-.003c.15-.018.298-.05.441-.098l12.44-3.928 10.4-3.284a2.624 2.624 0 0 0 1.845-2.535l-.256-31.726z" fill="#F5F5F5"/>
  <path d="M49.517 33.095a5.037 5.037 0 1 0 0-10.074 5.037 5.037 0 0 0 0 10.074z" fill="#D32F2F"/>
  <path d="M69.193 7.79a2.174 2.174 0 0 0-2.157 1.97h14.551V7.79H69.193z" fill="#388E3C"/>
  <path d="M13.134 20.243a293.781 293.781 0 0 1 74.341 0" fill="#757575"/>
</svg>
